[img]http://img189.imageshack.us/img189/9586/mi4chod.jpg[/img]
[code]
Mission Impossible Ghost Protocol 2011 CAM READNFO XviD AC3-26K

Imdb: 
http://www.imdb.com/title/tt1229238/

Plot:
The IMF is shut down when it's implicated in the bombing of the Kremlin, causing Ethan Hunt and his new team to go rogue to clear their organization's name.

Sources:
Russian-video thnxs
Generator-audio thnxs

Notes:
nice russian source thnxs guyz!!!
some video had to be cut so the audio and video duaration match! synced the eng audio.. around 50 secounds was cut at the start nothing important was cut of!
thnxs to generator for the eng audio thnxs m8!
that been said added few filters to video to make it look nice so take it or leave it!


Greetz:
Xtreme Encode|FYA|ILLUMANTI|CM8|RX|VISION|HDSCENE|
To all the people who have helped me :P you know who you are

Anything to offer email us @: 26k@hushmail.me

Format                                   : AVI
Format/Info                              : Audio Video Interleave
File size                                : 1.10 GiB
Duration                                 : 2h 4mn
Overall bit rate                         : 1 268 Kbps

Video
ID                                       : 0
Format                                   : MPEG-4 Visual
Format profile                           : Advanced Simple@L5
Format settings, BVOP                    : 2
Format settings, QPel                    : No
Format settings, GMC                     : No warppoints
Format settings, Matrix                  : Default (H.263)
Codec ID                                 : XVID
Codec ID/Hint                            : XviD
Duration                                 : 2h 4mn
Bit rate                                 : 1 612 Kbps
Width                                    : 720 pixels
Height                                   : 320 pixels
Display aspect ratio                     : 2.25:1
Frame rate                               : 25.000 fps
Color space                              : YUV
Chroma subsampling                       : 4:2:0
Bit depth                                : 8 bits
Scan type                                : Progressive
Compression mode                         : Lossy
Bits/(Pixel*Frame)                       : 0.280
Stream size                              : 1.41 GiB (92%)
Writing library                          : XviD 63

Audio
ID                                       : 1
Format                                   : AC-3
Format/Info                              : Audio Coding 3
Mode extension                           : CM (complete main)
Codec ID                                 : 2000
Duration                                 : 2h 4mn
Bit rate mode                            : Constant
Bit rate                                 : 128 Kbps
Channel(s)                               : 2 channels
Channel positions                        : Front: L R
Sampling rate                            : 44.1 KHz
Bit depth                                : 16 bits
Compression mode                         : Lossy
Stream size                              : 114 MiB (7%)
Alignment                                : Aligned on interleaves
Interleave, duration                     : 35 ms (0.87 video frame)

[/code]
Screens:
[img]http://img43.imageshack.us/img43/3937/vlcsnap2011121711h33m42.png[/img]
[img]http://img210.imageshack.us/img210/5296/vlcsnap2011121711h33m46.png[/img]
[img]http://img23.imageshack.us/img23/5656/vlcsnap2011121711h33m57.png[/img]
[img]http://img806.imageshack.us/img806/4931/vlcsnap2011121711h34m01.png[/img]
[img]http://img845.imageshack.us/img845/5556/vlcsnap2011121711h34m11.png[/img]
[img]http://img140.imageshack.us/img140/1898/vlcsnap2011121711h34m20.png[/img]

[img]http://img851.imageshack.us/img851/5503/26ks.jpg[/img]
Thank you smallz for banner!